<?xml version="1.0" standalone="no"?>
<!DOCTYPE svg PUBLIC "-//W3C//DTD SVG 20010904//EN"
 "http://www.w3.org/TR/2001/REC-SVG-20010904/DTD/svg10.dtd">
<svg version="1.0" xmlns="http://www.w3.org/2000/svg"
 width="1024.000000pt" height="1024.000000pt" viewBox="0 0 1024.000000 1024.000000"
 preserveAspectRatio="xMidYMid meet">

<g transform="translate(0.000000,1024.000000) scale(0.100000,-0.100000)"
fill="#000000" stroke="none">
<path d="M3000 8570 l0 -140 -157 0 c-350 0 -518 -58 -626 -215 -83 -122 -88
-147 -87 -530 1 -364 3 -375 63 -419 28 -20 36 -21 560 -18 443 3 536 6 555
18 20 13 22 22 22 99 l0 85 429 0 430 0 -64 -96 c-147 -220 -251 -502 -286
-779 -17 -138 -6 -411 21 -540 133 -628 576 -1135 1160 -1328 147 -49 392 -96
416 -79 6 4 19 22 28 39 20 39 44 42 107 13 l44 -19 0 -113 0 -113 99 -3 c65
-2 138 4 215 17 103 18 251 56 251 65 0 2 -16 47 -35 100 -42 117 -43 138 -9
165 55 43 82 28 168 -88 36 -49 70 -92 75 -96 31 -19 471 255 471 293 0 8 -31
57 -70 109 -38 52 -70 105 -70 117 0 23 42 68 73 79 26 9 53 -4 144 -72 45
-34 88 -61 95 -61 31 0 309 434 294 459 -3 4 -48 34 -100 65 -52 31 -98 61
-101 66 -3 5 5 39 17 75 22 63 24 65 58 65 19 0 72 -9 118 -20 46 -11 89 -20
97 -20 8 0 19 26 30 73 16 72 58 332 70 438 l6 56 -108 12 c-150 17 -153 18
-153 52 0 16 7 47 16 69 17 42 23 45 139 70 108 22 99 13 92 83 -12 131 -89
462 -112 485 -1 2 -47 -10 -101 -27 -54 -17 -108 -31 -121 -31 -27 0 -52 34
-59 81 -5 33 -3 36 90 104 52 39 96 77 96 86 1 43 -278 429 -310 429 -4 0 -47
-31 -95 -70 -48 -38 -93 -70 -99 -70 -20 0 -65 54 -71 85 -5 25 4 46 50 118
30 49 53 93 50 98 -15 24 -411 289 -432 289 -4 0 -34 -48 -66 -105 -32 -58
-64 -105 -70 -105 -19 0 -141 60 -149 73 -14 22 -7 52 32 142 21 50 35 94 30
99 -12 12 -227 73 -338 95 -149 31 -284 41 -526 41 -121 0 -319 3 -438 7
l-218 6 0 139 0 138 -820 0 -820 0 0 -140z m2641 -1766 c182 -54 309 -195 340
-377 24 -141 -23 -270 -134 -373 -256 -237 -639 -139 -739 189 -16 55 -19 87
-16 170 4 90 8 109 35 162 33 64 126 160 183 190 107 55 228 69 331 39z"/>
<path d="M5480 6571 c-53 -17 -91 -43 -117 -83 -24 -35 -27 -51 -27 -112 0
-116 45 -179 148 -207 53 -14 108 -3 163 34 82 56 115 169 75 259 -38 87 -149
137 -242 109z"/>
<path d="M2583 7103 l-33 -4 0 -230 0 -229 -107 0 c-114 0 -159 -14 -181 -57
-5 -10 -13 -146 -16 -302 -4 -156 -10 -290 -13 -297 -9 -24 22 -16 144 37 65
28 217 93 338 144 271 115 506 218 523 228 19 13 16 135 -6 177 -26 52 -70 70
-174 70 l-88 0 -2 233 -3 232 -175 1 c-96 1 -190 -1 -207 -3z"/>
<path d="M3130 6136 c-58 -24 -183 -78 -278 -120 -96 -42 -221 -94 -278 -116
-58 -22 -157 -63 -220 -92 l-114 -52 0 -168 c0 -110 4 -168 10 -168 13 0 188
72 330 136 105 47 343 145 563 232 l119 47 -6 74 c-3 41 -6 118 -6 173 0 54
-3 98 -7 98 -5 0 -55 -20 -113 -44z"/>
<path d="M3210 5604 c-19 -9 -233 -96 -475 -194 -242 -98 -452 -184 -467 -191
-27 -12 -28 -14 -29 -103 0 -50 -3 -122 -8 -159 -4 -38 -4 -70 -1 -72 9 -5
499 196 704 289 93 42 204 91 248 107 l78 30 0 155 c0 85 -3 154 -7 154 -5 -1
-24 -8 -43 -16z"/>
<path d="M3184 5076 c-67 -31 -120 -54 -622 -260 -271 -112 -335 -143 -329
-159 5 -18 158 -112 265 -164 l94 -45 -3 -124 c-3 -122 -3 -124 21 -141 14 -9
51 -41 83 -71 l59 -55 59 59 c96 95 101 107 93 217 -7 106 -5 110 81 165 126
80 252 163 268 177 15 13 17 37 17 219 0 113 -4 207 -8 210 -5 3 -40 -10 -78
-28z"/>
<path d="M1362 3780 c-127 -34 -245 -114 -296 -204 -57 -98 -61 -257 -10 -366
65 -137 153 -186 459 -256 181 -41 201 -49 243 -88 27 -25 32 -37 32 -76 0
-62 -28 -110 -81 -140 -38 -21 -56 -25 -129 -24 -96 0 -151 13 -201 47 -39 26
-75 86 -84 139 l-7 38 -149 0 -149 0 0 -38 c0 -101 55 -226 130 -296 104 -97
233 -139 425 -140 193 -1 317 40 413 134 147 145 162 415 31 564 -62 70 -152
109 -384 166 -234 58 -249 63 -276 102 -17 24 -20 40 -16 81 4 42 10 56 40 83
43 40 91 54 182 54 118 -1 181 -42 213 -141 14 -45 21 -54 40 -53 12 0 77 1
143 2 l122 2 -7 54 c-21 180 -146 309 -351 361 -83 21 -242 19 -333 -5z"/>
<path d="M5465 3769 c-3 -8 -4 -318 -3 -689 l3 -675 125 0 125 0 3 63 3 64 44
-41 c117 -108 294 -140 431 -77 114 52 195 166 230 322 25 113 16 311 -20 419
-65 201 -180 284 -378 273 -72 -5 -100 -11 -151 -36 -34 -17 -78 -47 -97 -66
-19 -20 -38 -36 -42 -36 -5 0 -8 108 -8 240 l0 240 -114 0 c-63 0 -121 3 -130
6 -9 3 -18 0 -21 -7z m612 -585 c21 -17 51 -56 68 -89 28 -57 30 -67 30 -180
0 -116 -1 -123 -33 -188 -24 -48 -45 -75 -72 -93 -107 -71 -253 -20 -311 108
-21 46 -24 68 -24 168 1 131 20 192 78 248 54 52 85 63 159 60 57 -3 73 -8
105 -34z"/>
<path d="M4990 3660 l0 -110 150 0 150 0 0 110 0 110 -150 0 -150 0 0 -110z"/>
<path d="M2538 3426 c-154 -44 -256 -142 -316 -304 -33 -91 -42 -285 -17 -381
19 -75 62 -162 102 -208 43 -49 128 -101 207 -125 96 -30 254 -30 338 0 108
39 192 114 243 216 43 87 45 86 -107 86 l-133 -1 -20 -32 c-29 -46 -77 -67
-158 -67 -69 0 -126 17 -160 48 -29 25 -57 86 -64 137 l-6 45 343 0 343 0 -6
98 c-3 54 -13 130 -22 169 -32 139 -128 256 -252 304 -72 28 -241 36 -315 15z
m175 -197 c71 -19 113 -72 142 -176 l6 -23 -200 0 c-224 0 -212 -5 -191 72 29
101 135 157 243 127z"/>
<path d="M7571 3420 c-41 -11 -95 -32 -120 -47 -101 -59 -186 -179 -216 -304
-20 -84 -19 -244 1 -323 50 -196 200 -329 401 -358 262 -38 485 115 538 369
29 137 12 316 -42 430 -93 197 -328 294 -562 233z m216 -201 c46 -17 101 -78
119 -132 13 -38 15 -79 12 -195 -3 -131 -6 -151 -26 -187 -69 -121 -241 -141
-338 -40 -52 54 -68 114 -68 255 0 164 41 257 129 296 36 16 133 18 172 3z"/>
<path d="M8578 3424 c-173 -41 -270 -152 -270 -308 0 -170 77 -237 350 -302
81 -19 160 -39 175 -46 63 -25 77 -100 29 -148 -46 -45 -167 -53 -256 -16 -33
14 -52 40 -70 99 -5 16 -18 17 -128 15 l-123 -3 2 -48 c4 -64 23 -107 75 -163
48 -53 132 -97 217 -115 88 -18 294 -7 363 20 75 29 150 97 185 169 24 50 28
69 28 147 0 105 -18 148 -84 208 -55 50 -89 62 -287 107 -94 21 -181 44 -193
52 -45 28 -41 92 9 126 32 22 43 23 120 20 49 -3 94 -10 107 -18 21 -13 45
-52 57 -93 5 -16 17 -17 118 -15 l113 3 3 39 c7 81 -69 190 -166 240 -84 43
-263 58 -374 30z"/>
<path d="M3693 3411 c-60 -20 -112 -58 -145 -103 l-23 -33 -5 70 -5 70 -132 3
-133 3 0 -510 0 -511 119 0 c66 0 126 3 135 6 14 5 16 41 16 293 0 266 2 289
21 331 49 109 109 150 229 159 l75 6 3 109 c2 81 -1 112 -10 118 -22 13 -90 8
-145 -11z"/>
<path d="M3938 3415 c-5 -5 66 -231 250 -800 l68 -210 150 -3 c113 -2 154 1
161 10 6 7 47 130 91 273 45 143 115 363 156 489 41 127 73 233 71 236 -6 9
-248 11 -261 2 -6 -4 -53 -163 -104 -354 -83 -307 -110 -390 -110 -331 0 21
-177 652 -188 672 -6 11 -40 15 -143 18 -74 2 -138 1 -141 -2z"/>
<path d="M5015 3408 c-3 -7 -4 -236 -3 -508 l3 -495 135 0 135 0 3 508 2 507
-135 0 c-99 0 -137 -3 -140 -12z"/>
<path d="M6585 3408 c-3 -7 -4 -236 -3 -508 l3 -495 130 0 130 0 5 285 c6 308
8 321 66 397 46 60 95 85 181 92 l78 6 5 108 c3 59 4 112 2 117 -5 15 -92 12
-151 -6 -55 -16 -121 -67 -152 -118 -22 -37 -27 -26 -31 64 l-3 65 -128 3
c-95 2 -129 -1 -132 -10z"/>
</g>
</svg>
